<svg id="Слой_1" data-name="Слой 1" xmlns="http://www.w3.org/2000/svg" viewBox="0 0 192 192"><path d="M145.18,0c0,13.11-4.88,26.26-14.68,35.63C122.35,43.5,110.86,48.81,96,49.4A49.06,49.06,0,0,1,61.81,35.63,49.13,49.13,0,0,1,46.58,0H74.13C75,28.85,117,28.89,117.87,0Z"/><path d="M130.5,156.34c9.8,9.4,14.68,22.51,14.68,35.66H117.87A21.92,21.92,0,0,0,96,170.11a49.36,49.36,0,1,1,49.44-49.4H117.87c-.87-28.85-42.83-28.93-43.74,0A21.87,21.87,0,0,0,96,142.56C110.86,143.15,122.35,148.46,130.5,156.34Z"/></svg>